<svg id="Layer_1" data-name="Layer 1" xmlns="http://www.w3.org/2000/svg" viewBox="0 0 670.97 580.65"><defs><style>.cls-1{fill:#39b54a;}.cls-2{fill:#fff;}</style></defs><path d="M376.94,196.6c-1.2-1.3-2.61-1.38-4.05-1.43-31.06-1.08-60.88,5-90,15.29a471.79,471.79,0,0,0-92.26,45c-7.66,4.78-15.12,9.87-22.68,14.8a25.33,25.33,0,0,1-2.87,1.72,5.63,5.63,0,0,1-7-1.18,26.41,26.41,0,0,1-2.74-3.32q-30.7-42.57-61.4-85.13c-12.79-17.67-25.7-35.25-38.52-52.89a28.71,28.71,0,0,1-2.79-4.72,4.89,4.89,0,0,1,.81-5.61,25.78,25.78,0,0,1,4-3.73c46.25-32.72,97.16-53.73,153.53-61a355.28,355.28,0,0,1,70.15-1.91c16.57,1.16,32.57,4.72,47.58,12,3.87,1.89,7.58,4.11,11.27,6.33a13.66,13.66,0,0,1,5.91,7.9c.73,2.26,1.39,4.55,2.18,7.17-.89-.25-1.42-.35-1.9-.54-22.32-9-45.61-12.87-69.57-13.09-36.71-.35-72.22,6.23-106.82,18.23a440.33,440.33,0,0,0-43.18,17.88,32.45,32.45,0,0,0-5.17,3c-3.84,2.75-5.3,6.49-4.14,11.13a26.8,26.8,0,0,0,1.4,4.07,8.26,8.26,0,0,1-1.57,9.71,26.94,26.94,0,0,0-3.7,5.28,14.23,14.23,0,0,0-.49,13.38,41.33,41.33,0,0,0,4,6.8c5.65,7.74,11.47,15.36,17.15,23.07,4.13,5.59,8.11,11.29,12.24,16.88a41.67,41.67,0,0,0,4.52,5.23,8.75,8.75,0,0,0,8.48,2.12,29.9,29.9,0,0,0,4.74-1.65,15.62,15.62,0,0,1,18.33,4c4.77,5.21,10.13,6.53,16.72,4,2.08-.81,4.07-1.84,6.07-2.84,22.77-11.39,46.09-21.43,70.42-29,26.73-8.35,54-13.2,82.12-13,9.54.06,19,.8,28.27,3.29a55.77,55.77,0,0,1,20.54,10,52.21,52.21,0,0,1,15.17,20.08c.13.29.25.59.37.88,1.71,4.22,3.36,8.44,5.3,12.57,3.07,6.55,3.44,13.57,2.53,20.68a96.11,96.11,0,0,1-7.14,25,119.87,119.87,0,0,1-23.45,36,156.68,156.68,0,0,1-22.49,19.72,20,20,0,0,1-4,2.21,4.85,4.85,0,0,1-5.58-.94,31.41,31.41,0,0,1-4.11-5c-10.91-16.73-21.73-33.52-32.64-50.24-5.8-8.9-11.81-17.67-17.58-26.59a72.27,72.27,0,0,1-5.66-10.26c-3.28-7.52-1.6-12.26,5.62-16.16a66.88,66.88,0,0,1,9.44-4.08,167.94,167.94,0,0,1,44.06-8.95c1.83-.13,3.67,0,5.51,0A5.72,5.72,0,0,0,376.94,196.6Zm5.85.25c-2.24-1.13-3.41-1-5.1.41,2,2,3.35,1.88,5.11-.47.85,1.63,1.2,1.68,3.53.14Z"/><path class="cls-1" d="M305.88,503c1.83.66,3.7,1.31,5.55,2,22,8.34,44.93,11.59,68.39,11.8,35.08.3,69-6,102.14-17.25a428,428,0,0,0,50-20.84,32,32,0,0,0,3.09-1.81,5.33,5.33,0,0,0,2.44-5.59,22.5,22.5,0,0,0-1-3.95,25.17,25.17,0,0,1-1.24-9.93,18.43,18.43,0,0,1,4.42-10.67c.68-.78,1.37-1.56,2-2.38a8.21,8.21,0,0,0,.82-9.84,70.22,70.22,0,0,0-4.13-6.15q-15.66-21.5-31.36-42.95c-.8-1.1-1.62-2.18-2.52-3.2a7.47,7.47,0,0,0-7.76-2.57,29.84,29.84,0,0,0-4.28,1.52,19.37,19.37,0,0,1-12,1.26,11,11,0,0,1-5.89-3.45c-5.71-6.3-12.27-7.87-20.17-4.78-2.45,1-4.81,2.16-7.16,3.34-31.71,15.94-64.68,28.38-99.49,35.61a243.4,243.4,0,0,1-60.57,4.93,79.84,79.84,0,0,1-20.76-3.41c-14.56-4.63-25.12-14-31.91-27.56-1.67-3.35-3-6.89-4.4-10.36a14.23,14.23,0,0,1-.23-10.54,5.08,5.08,0,0,0,0-3.68,17.36,17.36,0,0,1-.08-11.32c.87-2.81,2.07-5.52,3.08-8.3s2.13-5.83,3.11-8.77a55,55,0,0,1,6-13c2.46-3.72,5.21-7.25,7.86-10.85.23-.31.66-.46.94-.74a24.23,24.23,0,0,0,4.64-5.65c3.19-6.06,8.18-10.57,13.48-14.75,2.25-1.78,4.6-3.46,6.83-5.26,1.36-1.1,2.52-2.44,3.89-3.52a41.64,41.64,0,0,1,5.43-3.84,5.31,5.31,0,0,1,6.07.65,21.51,21.51,0,0,1,5.1,6c5.32,8.36,10.54,16.78,16,25,11.2,16.91,22.55,33.72,33.79,50.61,1.5,2.25,2.79,4.65,4.11,7a22.67,22.67,0,0,1,1.37,3.06c2.75,7.23,1.08,12-5.55,16.06l-2.55,1.54a4.43,4.43,0,0,0,2.95-.23,328,328,0,0,0,41.21-13.5c25.23-10.07,49.11-22.79,72.22-37,8.77-5.39,17.37-11.07,26.06-16.61a30.77,30.77,0,0,1,3.74-2.13,4.9,4.9,0,0,1,5.78.86,31.39,31.39,0,0,1,3.66,4.08q30.39,42,60.74,84.1c12.61,17.39,25.42,34.64,38.1,52a27.8,27.8,0,0,1,3,5.14,7.18,7.18,0,0,1-1.9,8.73,43.21,43.21,0,0,1-4.83,3.91C554.7,503.13,511.49,522,464.17,531a345.25,345.25,0,0,1-88.1,5.63c-16.86-1.12-33.23-4.59-48.67-11.71a93.36,93.36,0,0,1-11.34-6.16A23.83,23.83,0,0,1,305.73,504a3.25,3.25,0,0,1-.05-.7C305.68,503.25,305.75,503.18,305.88,503Z"/><path class="cls-1" d="M374,363.07a20.88,20.88,0,0,1,2.34-2.53c12.53-9.9,25.22-19.6,37.59-29.7q17.26-14.07,33.95-28.85c9.34-8.24,18.44-16.77,27.38-25.43,7.18-6.94,14-14.26,20.91-21.45,3-3.11,5.88-6.32,8.82-9.48a12.37,12.37,0,0,1,1.37-1.34c2.3-1.82,3.9-1.57,5.62.8q21.09,29.1,42.18,58.19,31.26,43.17,62.47,86.37c2.43,3.37,4.59,6.92,6.76,10.46a30.19,30.19,0,0,1,2.39,5c2.17,5.67,1.2,10.14-3.43,14a133,133,0,0,1-10.8,7.92c-3.11,2.1-6.41,3.9-9.61,5.87-2,1.25-4.06,2.54-6.07,3.84a5.36,5.36,0,0,1-6.29.18,19.78,19.78,0,0,1-7.24-8.12,5.73,5.73,0,0,1,1.94-7.48c2.65-2,5.55-3.72,8.4-5.48,1.28-.8,2.7-1.38,4-2.12a23.76,23.76,0,0,0,2.64-1.64c3.33-2.46,4.26-5.46,2.68-9.27a26,26,0,0,0-2.93-5.19q-44.21-60.87-88.47-121.68c-.56-.78-1.14-1.54-1.77-2.26-1.9-2.15-3.78-2.48-6.12-.77-1.8,1.31-3.36,2.94-5,4.4-7.36,6.39-14.61,12.89-22.11,19.11-15.25,12.64-30.9,24.77-47.26,36a388,388,0,0,1-51.91,30.25c-.64.31-1.29.59-1.94.88Z"/><path d="M144.9,346.41c-.59-.73-1.09-1.33-1.55-2L74,249.11c-12.12-16.66-24.31-33.27-36.39-50-2.71-3.75-5.16-7.7-7.51-11.68a25.24,25.24,0,0,1-2.41-6,10.81,10.81,0,0,1,2-9.94A32.82,32.82,0,0,1,38.34,164c5.72-3.65,11.55-7.14,17.33-10.69,1-.63,2-1.26,3.08-1.85,3.33-1.87,5.59-1.37,7.89,1.7.19.25.34.54.52.8,1.36,2,2.74,3.92,4.1,5.89,1.85,2.68,1.64,4.79-1,6.59-3.83,2.59-7.84,4.92-11.72,7.43a39.38,39.38,0,0,0-5.4,3.89,6.08,6.08,0,0,0-1.56,7.06,36,36,0,0,0,3.95,7.34c5.25,7.34,10.75,14.5,16.05,21.8Q106,261.46,140.42,309a35.66,35.66,0,0,0,4,4.79c2.74,2.65,5.3,2.86,8.4.62a73.07,73.07,0,0,0,6.39-5.41c19-17.34,38.84-33.72,60.28-48a18.23,18.23,0,0,0,2.8-2.55c2.13-2.18,4.37-3.89,7.74-3.28a3.62,3.62,0,0,0,4.38-2.52,8.92,8.92,0,0,1,3.11-3.82,139.31,139.31,0,0,1,40-21.8,1.14,1.14,0,0,1,.88.05c-.59.52-1.17,1.07-1.79,1.56C262,240.08,247.36,251.42,232.93,263c-7.58,6.1-14.83,12.63-22.12,19.1-8.42,7.47-16.82,15-25.05,22.66q-10.17,9.48-19.89,19.42c-6.86,7-13.45,14.33-20.16,21.51A10.52,10.52,0,0,1,144.9,346.41Z"/><path class="cls-1" d="M406.11,432c15.83,13.28,22.36,29.11,22,47.93A28.37,28.37,0,0,1,427,487c-2.87,10.21-11.1,16.44-21.73,16.59-6.49.09-12.4-2-18-4.94a51.94,51.94,0,0,1-18.34-16.51c-5.1-7.22-9.28-14.93-11.31-23.61-1.83-7.87-1.89-15.7,1.27-23.3,4.15-10,13.26-15.22,24-14A38.54,38.54,0,0,1,398,426.73C401.25,428.63,404.32,430.79,406.11,432Zm-24.32,55.09c1,.81,1.93,1.7,3,2.41,5.1,3.49,10.65,5.82,16.91,6,8.72.31,15.32-4.22,18.11-12.47a31.38,31.38,0,0,0-.13-20.26A54.69,54.69,0,0,0,404,438.23a34.64,34.64,0,0,0-19.56-8.84c-9.51-1-16.69,3.8-19.56,12.93a31.29,31.29,0,0,0-.57,16.35A50.15,50.15,0,0,0,381.79,487.05Z"/><path d="M143.79,118.06l2.88-4.56c3.29,1.67,6.3,3.3,9.4,4.74a43.08,43.08,0,0,0,12.11,3.68c9.61,1.39,17.66-1.51,24.1-8.79,2.91-3.3,5.65-6.75,8.69-9.92,7.44-7.79,17.54-9.15,26.87-3.67,2.82,1.65,5.46,3.63,8.21,5.41a40.21,40.21,0,0,0,4.72,2.81c4.93,2.31,9.29,1.3,12.49-3.09a71.66,71.66,0,0,0,4.53-7.61,33.66,33.66,0,0,1,7.13-9.55,22.23,22.23,0,0,1,16-5.31,43.88,43.88,0,0,1,17,4.59c2.3,1.07,4.51,2.31,7,3.58l-2.8,5c-.84-.4-1.62-.73-2.36-1.14a50.76,50.76,0,0,0-12.37-5.1,36.35,36.35,0,0,0-7.09-1.05c-6.83-.21-12,2.77-15.52,8.62-2,3.29-3.72,6.7-5.73,10-5,8.11-13.74,10.45-22,5.74-3.8-2.18-7.36-4.79-11-7.18a18.65,18.65,0,0,0-2.1-1.16c-7.1-3.49-13.78-2.31-19.14,3.52-3,3.23-5.74,6.66-8.68,9.93-7.6,8.43-17.11,11.72-28.28,10.24-8.32-1.09-15.78-4.49-22.89-8.77C144.59,118.77,144.31,118.48,143.79,118.06Z"/><path d="M367.29,110.19c-1,1.73-1.93,3.21-2.89,4.83-2-1-3.68-2-5.51-2.76-3.56-1.4-7.15-2.73-10.8-3.86a20.26,20.26,0,0,0-5.22-.68c-7.51-.28-12.75,3.34-16.37,9.69-1.81,3.19-3.54,6.45-5.53,9.53-4.88,7.54-13.74,10.17-22.84,4.41-2.9-1.84-5.69-3.86-8.55-5.75a31,31,0,0,0-3.52-2c-6.69-3.24-13.18-2.14-18.4,3.26-2.49,2.58-4.79,5.36-7.1,8.11-3.64,4.34-7.76,8.06-13,10.33a32.06,32.06,0,0,1-17.63,2.13c-7.64-1.09-14.57-4.12-21.2-7.91-.76-.44-1.5-.9-2.55-1.53.94-1.58,1.86-3.11,2.89-4.85.75.38,1.38.65,2,1a58,58,0,0,0,17.69,7.17,29.64,29.64,0,0,0,12.37,0c6.15-1.37,10.76-5.08,14.76-9.7,1.62-1.87,3.11-3.86,4.77-5.7a44,44,0,0,1,5.23-5.25c7.22-5.68,15.09-6.2,23.13-2,3.81,2,7.25,4.65,10.89,7a27.67,27.67,0,0,0,3.75,2.11c4.51,2,8.75.93,11.8-2.91a46.79,46.79,0,0,0,3.21-5c1.47-2.47,2.79-5,4.34-7.44,4.3-6.69,10.53-10.07,18.42-10.39a37.33,37.33,0,0,1,15,2.9A60.5,60.5,0,0,1,367.29,110.19Z"/><path d="M271.34,150.55l2.65-3.86c2.44,1.49,4.64,2.91,6.91,4.22A37.14,37.14,0,0,0,292,155.3,20.5,20.5,0,0,0,308.64,152c2.09-1.47,4.09-3.07,6.17-4.55,6.94-5,14.08-5.12,21.2-.4a46.46,46.46,0,0,1,12.28,12.64,2.83,2.83,0,0,1,.23.84l-3.9,2.63c-2.07-2.46-3.93-4.84-6-7a23.51,23.51,0,0,0-8.87-6.38,10.92,10.92,0,0,0-10.32.95c-2.07,1.35-4,2.83-6,4.35-7.88,6.15-16.57,7.44-26,4.45a57.79,57.79,0,0,1-15.06-7.75,4.79,4.79,0,0,1-.73-.62A2.62,2.62,0,0,1,271.34,150.55Z"/><path d="M171.81,170.12l3-4c2.51,1.51,4.79,3.13,7.28,4.33a59.2,59.2,0,0,0,9.5,3.88A20.46,20.46,0,0,0,210,171c1.61-1.17,3.21-2.37,4.78-3.6,6.92-5.45,14.13-5.77,21.57-1.15,5.4,3.35,9.33,8.14,13.1,13.46l-4.1,2.91c-.55-.64-1-1.18-1.46-1.69-2.46-2.72-4.83-5.53-7.42-8.11a17.38,17.38,0,0,0-4.35-3c-4.22-2.18-8.44-2.26-12.47.54-2,1.36-3.89,2.79-5.79,4.25-7.7,5.91-16.19,7.18-25.37,4.32A54.24,54.24,0,0,1,171.81,170.12Z"/><path class="cls-2" d="M382.8,196.78c-1.76,2.36-3.11,2.49-5.11.48,1.69-1.44,2.86-1.54,5.1-.41Z"/><path class="cls-2" d="M382.79,196.85l3.54.08c-2.33,1.54-2.68,1.49-3.53-.15Z"/><path class="cls-1" d="M381.79,487.05a50.15,50.15,0,0,1-17.52-28.38,31.29,31.29,0,0,1,.57-16.35c2.87-9.13,10.05-13.93,19.56-12.93A34.64,34.64,0,0,1,404,438.23a54.69,54.69,0,0,1,15.7,24.54,31.38,31.38,0,0,1,.13,20.26c-2.79,8.25-9.39,12.78-18.11,12.47-6.26-.22-11.81-2.55-16.91-6C383.72,488.75,382.78,487.86,381.79,487.05Zm1-33.16a11,11,0,0,1,5.76,10.58,55.37,55.37,0,0,0-.18,6.69,15.36,15.36,0,0,0,9.34,13.7,23.19,23.19,0,0,0,8.49,2.34c2.93.19,4.43-.95,4.83-3.8a65,65,0,0,0,.7-8.58c0-3.14-1.64-4.15-4.56-3.09-1,.35-1.88.9-2.84,1.26-2.27.86-3.9.14-4.89-2.05a5.52,5.52,0,0,1-.17-3.74,30.06,30.06,0,0,0,.87-9.26,17.34,17.34,0,0,0-6.65-12.78c-4-3.22-8.71-5-13.59-6.28-1.36-.38-2.74-.64-4.39-1-.24,4-.57,7.75-.63,11.48a44,44,0,0,0,.63,6.66,7.12,7.12,0,0,0,1,2.43,1.69,1.69,0,0,0,2.62.71c1.43-1,2.87-2.06,3.19-4A5.81,5.81,0,0,1,382.8,453.89Z"/></svg>