<svg id="Layer_1" data-name="Layer 1" xmlns="http://www.w3.org/2000/svg" viewBox="0 0 654.84 587.1"><defs><style>.cls-1{fill:gray;}.cls-2{fill:#39b54a;}</style></defs><path class="cls-1" d="M375.33,182.08c-1.2-1.3-2.62-1.38-4.06-1.43-31-1.07-60.88,4.95-90,15.29a471.35,471.35,0,0,0-92.27,45c-7.65,4.77-15.11,9.86-22.67,14.79a25.46,25.46,0,0,1-2.88,1.72,5.63,5.63,0,0,1-7-1.17,27.32,27.32,0,0,1-2.73-3.33Q123,210.37,92.27,167.79c-12.78-17.67-25.69-35.24-38.52-52.88A29.17,29.17,0,0,1,51,110.18a4.87,4.87,0,0,1,.81-5.6,25.84,25.84,0,0,1,4-3.74C102.05,68.12,153,47.12,209.33,39.89A356,356,0,0,1,279.47,38c16.58,1.16,32.58,4.72,47.59,12,3.87,1.88,7.58,4.1,11.27,6.33a13.68,13.68,0,0,1,5.91,7.89c.72,2.27,1.39,4.55,2.18,7.17-.89-.25-1.42-.34-1.9-.54-22.32-9-45.61-12.86-69.58-13.09C238.24,57.43,202.72,64,168.13,76A440.26,440.26,0,0,0,125,93.88a33.58,33.58,0,0,0-5.17,3c-3.84,2.75-5.3,6.5-4.14,11.13a25.4,25.4,0,0,0,1.4,4.07,8.25,8.25,0,0,1-1.58,9.71,27,27,0,0,0-3.7,5.29,14.25,14.25,0,0,0-.49,13.38,41.29,41.29,0,0,0,4,6.79c5.65,7.74,11.46,15.36,17.15,23.07,4.12,5.6,8.1,11.29,12.23,16.88a42.68,42.68,0,0,0,4.53,5.24,8.78,8.78,0,0,0,8.47,2.12,29.94,29.94,0,0,0,4.74-1.66,15.62,15.62,0,0,1,18.34,4c4.77,5.21,10.13,6.52,16.71,4,2.08-.81,4.08-1.84,6.08-2.84,22.76-11.39,46.09-21.43,70.41-29,26.73-8.35,54-13.19,82.12-13,9.54.07,19,.81,28.27,3.29a55.6,55.6,0,0,1,20.55,10A52.06,52.06,0,0,1,420,189.34c.13.29.25.58.37.88,1.7,4.21,3.36,8.43,5.3,12.56,3.07,6.56,3.43,13.58,2.53,20.68a97.08,97.08,0,0,1-7.14,25.06,119.54,119.54,0,0,1-23.46,35.94,155.61,155.61,0,0,1-22.49,19.72,19.87,19.87,0,0,1-3.95,2.21,4.85,4.85,0,0,1-5.58-.94,30.87,30.87,0,0,1-4.11-4.95c-10.92-16.72-21.73-33.51-32.64-50.24-5.81-8.9-11.81-17.67-17.58-26.59a72.23,72.23,0,0,1-5.67-10.26c-3.28-7.52-1.6-12.26,5.62-16.15a64.76,64.76,0,0,1,9.45-4.08,167.47,167.47,0,0,1,44.06-9c1.83-.13,3.67.05,5.51,0A5.72,5.72,0,0,0,375.33,182.08Zm5.85.25c-2.24-1.13-3.42-1-5.1.42,2,2,3.35,1.88,5.11-.48.85,1.64,1.19,1.69,3.53.14Z"/><path class="cls-2" d="M312.27,538.44c1.83.66,3.7,1.32,5.55,2,22,8.33,44.93,11.59,68.38,11.79,35.09.3,69-6,102.15-17.25a425.34,425.34,0,0,0,50-20.83,32.92,32.92,0,0,0,3.09-1.82,5.33,5.33,0,0,0,2.45-5.59,23.66,23.66,0,0,0-1-3.95,25.18,25.18,0,0,1-1.25-9.93,18.41,18.41,0,0,1,4.43-10.66c.68-.79,1.37-1.57,2-2.39a8.23,8.23,0,0,0,.82-9.83,68.31,68.31,0,0,0-4.14-6.16q-15.64-21.49-31.35-42.95c-.8-1.09-1.62-2.18-2.52-3.2a7.48,7.48,0,0,0-7.77-2.57,29,29,0,0,0-4.27,1.53,19.44,19.44,0,0,1-12,1.25,11,11,0,0,1-5.9-3.45c-5.71-6.3-12.26-7.87-20.17-4.77-2.45,1-4.8,2.16-7.16,3.34C422,429,389,441.4,354.2,448.62a244,244,0,0,1-60.58,4.94,79.84,79.84,0,0,1-20.75-3.42c-14.57-4.63-25.12-13.95-31.91-27.55-1.67-3.36-3-6.9-4.41-10.36a14.28,14.28,0,0,1-.22-10.54,5.16,5.16,0,0,0,0-3.69,17.39,17.39,0,0,1-.09-11.31c.88-2.82,2.08-5.53,3.09-8.3s2.13-5.84,3.11-8.78a54.78,54.78,0,0,1,6-13c2.46-3.72,5.22-7.25,7.87-10.85.23-.3.65-.45.93-.73a24,24,0,0,0,4.64-5.66c3.2-6.06,8.19-10.56,13.49-14.75,2.25-1.78,4.59-3.45,6.83-5.26,1.36-1.1,2.52-2.43,3.89-3.51a40.78,40.78,0,0,1,5.43-3.85,5.32,5.32,0,0,1,6.07.66,21.37,21.37,0,0,1,5.1,6c5.31,8.36,10.54,16.77,16,25,11.2,16.91,22.54,33.73,33.79,50.61,1.5,2.26,2.79,4.66,4.11,7a22.07,22.07,0,0,1,1.36,3.06c2.76,7.22,1.09,12-5.54,16.05L349.9,422a4.34,4.34,0,0,0,2.94-.23,329.19,329.19,0,0,0,41.22-13.49c25.23-10.08,49.11-22.8,72.22-37,8.77-5.4,17.37-11.08,26.06-16.62a29.31,29.31,0,0,1,3.73-2.12,4.89,4.89,0,0,1,5.79.86,30.82,30.82,0,0,1,3.66,4.08q30.39,42,60.73,84.09c12.62,17.39,25.42,34.64,38.1,52a27.39,27.39,0,0,1,3,5.13,7.19,7.19,0,0,1-1.89,8.74,44.15,44.15,0,0,1-4.84,3.9c-39.57,27.35-82.78,46.16-130.11,55.23a345.18,345.18,0,0,1-88.09,5.64c-16.87-1.13-33.24-4.6-48.67-11.71a93.55,93.55,0,0,1-11.35-6.17,23.82,23.82,0,0,1-10.32-14.77,2.69,2.69,0,0,1-.05-.7C312.07,538.73,312.14,538.66,312.27,538.44Z"/><path class="cls-2" d="M380.42,398.55a22.63,22.63,0,0,1,2.35-2.53c12.53-9.9,25.22-19.6,37.59-29.69q17.25-14.08,33.95-28.85c9.33-8.25,18.43-16.77,27.38-25.44,7.17-6.94,14-14.26,20.91-21.45,3-3.11,5.88-6.32,8.82-9.48a14.44,14.44,0,0,1,1.37-1.34c2.3-1.81,3.9-1.56,5.62.81q21.09,29.09,42.17,58.18,31.26,43.17,62.48,86.38c2.42,3.36,4.59,6.92,6.76,10.46a30.92,30.92,0,0,1,2.39,4.95c2.17,5.67,1.19,10.15-3.44,14a129.56,129.56,0,0,1-10.8,7.92c-3.1,2.1-6.41,3.91-9.61,5.87-2,1.25-4.05,2.54-6.06,3.85a5.35,5.35,0,0,1-6.29.17,19.91,19.91,0,0,1-7.25-8.11,5.74,5.74,0,0,1,1.94-7.48c2.66-2,5.56-3.73,8.41-5.49,1.28-.8,2.7-1.38,4-2.11a22.44,22.44,0,0,0,2.64-1.65c3.32-2.46,4.26-5.46,2.68-9.26a25.32,25.32,0,0,0-2.94-5.19q-44.19-60.87-88.46-121.69c-.56-.77-1.14-1.54-1.77-2.26-1.9-2.15-3.78-2.47-6.12-.76-1.8,1.31-3.36,2.93-5.05,4.4-7.36,6.38-14.62,12.89-22.11,19.1-15.25,12.65-30.9,24.78-47.26,36a387.52,387.52,0,0,1-51.91,30.25c-.64.31-1.29.59-1.94.89Z"/><path class="cls-1" d="M143.28,331.89c-.58-.73-1.09-1.32-1.55-1.95q-34.65-47.67-69.31-95.34C60.3,217.94,48.1,201.33,36,184.63c-2.71-3.75-5.16-7.69-7.51-11.67a25.34,25.34,0,0,1-2.42-6,10.79,10.79,0,0,1,2-9.93,32.86,32.86,0,0,1,8.58-7.59c5.72-3.65,11.54-7.13,17.33-10.68,1-.63,2-1.27,3.08-1.85,3.33-1.87,5.59-1.38,7.88,1.69.19.26.34.54.53.8,1.36,2,2.73,3.93,4.1,5.9,1.85,2.67,1.64,4.78-1,6.58-3.84,2.59-7.84,4.92-11.73,7.43a39.35,39.35,0,0,0-5.39,3.9A6.06,6.06,0,0,0,50,170.29a36.77,36.77,0,0,0,3.94,7.34c5.25,7.33,10.76,14.49,16,21.8Q104.4,247,138.81,294.5a34.45,34.45,0,0,0,3.95,4.79c2.74,2.65,5.29,2.86,8.4.62a71.37,71.37,0,0,0,6.39-5.41c19-17.33,38.83-33.72,60.28-48a18.3,18.3,0,0,0,2.8-2.56c2.12-2.18,4.37-3.89,7.74-3.28a3.62,3.62,0,0,0,4.38-2.52,8.82,8.82,0,0,1,3.11-3.81,139.14,139.14,0,0,1,40-21.8,1.12,1.12,0,0,1,.89.05c-.6.52-1.17,1.07-1.79,1.56-14.56,11.45-29.22,22.79-43.65,34.41-7.58,6.11-14.83,12.64-22.12,19.1-8.43,7.47-16.82,15-25.06,22.66Q174,299.76,164.25,309.7c-6.86,7-13.45,14.33-20.16,21.51A10.52,10.52,0,0,1,143.28,331.89Z"/><path class="cls-2" d="M412.5,467.44c15.82,13.29,22.36,29.11,22,47.93a28.76,28.76,0,0,1-1.14,7.07c-2.87,10.22-11.11,16.44-21.73,16.59-6.49.09-12.4-2-18.06-4.93a52.22,52.22,0,0,1-18.34-16.51C370.17,510.36,366,502.66,364,494c-1.84-7.87-1.89-15.7,1.27-23.29,4.15-10,13.26-15.22,24-14a38.57,38.57,0,0,1,15.2,5.51C407.64,464.11,410.71,466.27,412.5,467.44Zm-24.32,55.09c1,.81,1.92,1.7,3,2.42,5.11,3.48,10.65,5.82,16.92,6,8.72.3,15.32-4.23,18.11-12.47a31.41,31.41,0,0,0-.13-20.27,54.75,54.75,0,0,0-15.7-24.54,34.76,34.76,0,0,0-19.57-8.84c-9.51-1-16.69,3.81-19.55,12.93a31.4,31.4,0,0,0-.58,16.35A50.13,50.13,0,0,0,388.18,522.53Z"/><path class="cls-1" d="M142.17,103.54,145.06,99c3.28,1.66,6.3,3.29,9.39,4.74a43.48,43.48,0,0,0,12.12,3.68c9.61,1.38,17.66-1.52,24.1-8.8,2.91-3.29,5.65-6.74,8.68-9.92,7.45-7.78,17.55-9.14,26.88-3.67,2.82,1.66,5.45,3.63,8.2,5.41a41.26,41.26,0,0,0,4.73,2.82c4.93,2.31,9.28,1.29,12.49-3.1a69.8,69.8,0,0,0,4.52-7.6A33.78,33.78,0,0,1,263.31,73a22.2,22.2,0,0,1,16-5.3c6,.21,11.61,2.07,17,4.58,2.29,1.07,4.51,2.31,7,3.58-1,1.75-1.83,3.26-2.8,5-.84-.4-1.62-.74-2.37-1.14a50.72,50.72,0,0,0-12.36-5.11,35.59,35.59,0,0,0-7.09-1c-6.84-.22-12,2.76-15.52,8.61-2,3.29-3.73,6.7-5.73,10-5,8.11-13.74,10.46-22,5.74-3.81-2.17-7.37-4.78-11.05-7.18a19.24,19.24,0,0,0-2.09-1.16c-7.11-3.49-13.79-2.31-19.15,3.52-3,3.24-5.73,6.67-8.67,9.93-7.6,8.43-17.11,11.72-28.29,10.25-8.31-1.1-15.77-4.5-22.88-8.78A13.09,13.09,0,0,1,142.17,103.54Z"/><path class="cls-1" d="M365.67,95.67l-2.89,4.83c-2-1-3.67-2-5.5-2.76-3.56-1.4-7.16-2.72-10.81-3.85a20.13,20.13,0,0,0-5.21-.69c-7.51-.28-12.76,3.34-16.37,9.7-1.82,3.19-3.54,6.44-5.53,9.52-4.88,7.55-13.74,10.17-22.84,4.41-2.9-1.84-5.69-3.85-8.56-5.75a31.58,31.58,0,0,0-3.52-2c-6.68-3.24-13.17-2.14-18.39,3.26-2.49,2.58-4.79,5.35-7.1,8.11-3.64,4.34-7.77,8.05-13,10.32a32.12,32.12,0,0,1-17.62,2.14c-7.65-1.09-14.57-4.13-21.2-7.92-.76-.43-1.51-.9-2.56-1.53l2.9-4.84c.75.37,1.38.64,2,1a57.81,57.81,0,0,0,17.68,7.17,29.69,29.69,0,0,0,12.38,0c6.15-1.37,10.75-5.08,14.76-9.69,1.62-1.87,3.1-3.87,4.77-5.71a44,44,0,0,1,5.23-5.25c7.22-5.68,15.09-6.2,23.12-2,3.81,2,7.26,4.65,10.89,7a27.72,27.72,0,0,0,3.76,2.1c4.5,1.95,8.74.94,11.79-2.91a43.89,43.89,0,0,0,3.21-5c1.48-2.47,2.8-5,4.35-7.44,4.3-6.69,10.53-10.07,18.42-10.38a37.3,37.3,0,0,1,15,2.89A59.86,59.86,0,0,1,365.67,95.67Z"/><path class="cls-1" d="M269.72,136c.83-1.19,1.71-2.48,2.66-3.86,2.44,1.5,4.64,2.91,6.91,4.22a37.14,37.14,0,0,0,11.08,4.39A20.47,20.47,0,0,0,307,137.52c2.09-1.47,4.09-3.06,6.16-4.55,6.95-5,14.08-5.12,21.2-.39a46.31,46.31,0,0,1,12.29,12.63,3.24,3.24,0,0,1,.22.85L343,148.69c-2.07-2.46-3.93-4.84-6-7.06a23.52,23.52,0,0,0-8.88-6.37,10.87,10.87,0,0,0-10.31.94c-2.07,1.35-4.06,2.84-6,4.36-7.88,6.15-16.56,7.43-26,4.44a57.54,57.54,0,0,1-15.07-7.75,5.25,5.25,0,0,1-.73-.61A4.1,4.1,0,0,1,269.72,136Z"/><path class="cls-1" d="M170.19,155.6l3-4c2.5,1.51,4.79,3.12,7.28,4.33a59.15,59.15,0,0,0,9.5,3.87,20.46,20.46,0,0,0,18.42-3.35c1.62-1.18,3.22-2.38,4.78-3.61,6.93-5.45,14.13-5.76,21.58-1.14,5.4,3.35,9.32,8.14,13.1,13.45l-4.1,2.92c-.55-.65-1-1.18-1.46-1.7-2.46-2.72-4.83-5.52-7.43-8.11a17.56,17.56,0,0,0-4.34-2.94c-4.22-2.19-8.44-2.26-12.47.53-2,1.37-3.89,2.79-5.79,4.25-7.7,5.92-16.19,7.18-25.38,4.32A54.35,54.35,0,0,1,170.19,155.6Z"/><path class="cls-1" d="M381.19,182.27c-1.76,2.36-3.12,2.48-5.11.48,1.68-1.45,2.86-1.55,5.1-.42Z"/><path class="cls-1" d="M381.18,182.33l3.54.08c-2.34,1.55-2.68,1.5-3.53-.14Z"/><path class="cls-2" d="M388.18,522.53a50.13,50.13,0,0,1-17.53-28.38,31.4,31.4,0,0,1,.58-16.35c2.86-9.12,10-13.93,19.55-12.93a34.76,34.76,0,0,1,19.57,8.84,54.75,54.75,0,0,1,15.7,24.54,31.41,31.41,0,0,1,.13,20.27c-2.79,8.24-9.39,12.77-18.11,12.47-6.27-.22-11.81-2.56-16.92-6C390.1,524.23,389.17,523.34,388.18,522.53Zm1-33.16A11,11,0,0,1,395,500a53.45,53.45,0,0,0-.19,6.69,15.38,15.38,0,0,0,9.35,13.7,23.34,23.34,0,0,0,8.49,2.35c2.93.18,4.43-1,4.83-3.81a63.34,63.34,0,0,0,.69-8.58c0-3.14-1.63-4.15-4.56-3.09-1,.36-1.87.9-2.84,1.27-2.26.85-3.89.14-4.88-2.05a5.55,5.55,0,0,1-.18-3.75,29.46,29.46,0,0,0,.87-9.26,17.31,17.31,0,0,0-6.65-12.77c-4-3.22-8.7-5-13.58-6.29-1.36-.37-2.75-.64-4.39-1-.24,4-.58,7.76-.63,11.49a44,44,0,0,0,.63,6.65,7.12,7.12,0,0,0,.95,2.43,1.69,1.69,0,0,0,2.62.71c1.43-1,2.87-2.06,3.19-4A5.81,5.81,0,0,1,389.19,489.37Z"/></svg>